<svg version="1.2" xmlns="http://www.w3.org/2000/svg" viewBox="0 0 512 512" width="256" height="128">
	<title>rating</title>
	<style>
		.s0 { fill: #000000 } 
	</style>
	<g>
		<path class="s0" d="m42.8 212.7c-0.9 1-4.1 6.8-7.1 12.9l-5.6 11.1-12.8 1.7c-9.9 1.4-13.3 2.3-15 3.9-4.3 3.9-3.2 6.4 7.7 16.9l10.1 9.6-2 11.3c-2.6 13.9-2.6 17.1-0.3 19.2 3 2.7 5.9 2 18-4.4l11.4-6.1 11.8 6.1c12.5 6.5 15.7 7.2 18.3 4.3 2.2-2.4 2.1-4.3-0.4-18.6l-2.1-12 10.1-9.6c10.9-10.5 11.8-12.4 7.8-16.4-1.8-1.8-4.3-2.6-11.3-3.6-18.8-2.6-16.1-0.9-23-14.3-3.3-6.5-6.7-12.3-7.5-12.8-2.3-1.4-6.5-1-8.1 0.8zm105.2-0.8c-0.8 0.5-4.1 6.3-7.4 12.8l-5.8 11.9-13.1 1.9c-10.9 1.5-13.5 2.2-15.4 4.1-4 4-3.7 4.7 8.8 17l9.1 9.1-2.2 13.3c-2.5 14.8-2.1 17.4 2.7 18.6 2.2 0.6 5.2-0.5 15-5.5l12.2-6.3 11.4 6.1c12.1 6.5 15.4 7.2 18 4.3 2.2-2.4 2.1-6.3-0.2-19.2l-2-10.5 10-10.1c7.5-7.7 9.9-10.8 9.9-12.8 0-4.9-2.6-6.1-16.9-8.1l-13.2-1.8-5.6-11.1c-3-6.1-6.2-11.9-7.1-12.9-1.6-1.8-5.7-2.2-8.2-0.8zm103.4 0.8c-1 1-4.1 6.8-7 12.9l-5.3 11.1-12.8 1.7c-14.7 2.1-17.3 3.2-17.3 7.9 0 2.7 1.5 4.6 9.7 12.9l9.7 9.7-1.9 11.8c-2.3 14.2-2.3 17.2 0.1 19 3.1 2.2 5.8 1.5 17.8-4.8l11.6-6.1 11.6 6.1c12 6.3 14.7 7 17.8 4.8 2.4-1.8 2.4-4.8 0.1-19l-1.9-11.8 9.7-9.7c8.2-8.3 9.7-10.2 9.7-12.9 0-4.7-2.6-5.8-17.3-7.9l-12.9-1.7-6-12.1c-3.2-6.6-6.4-12.4-7.1-12.8-2.1-1.4-6.5-0.9-8.3 0.9zm104.4 0c-0.9 1-4.1 6.8-7.1 12.9l-5.6 11.1-13.2 1.8c-14.3 2-16.9 3.2-16.9 8.1 0 2 2.4 5.1 9.9 12.8l10 10.1-2 10.5c-2.4 13.3-2.4 17.2-0.1 19.3 3 2.7 5.8 2 17.8-4.4l11.4-6 12.3 6.2c9.8 4.9 12.9 6.1 15 5.5 4.8-1.2 5.2-3.9 2.7-18.6l-2.2-13.3 9.1-9.1c12.5-12.3 12.8-13 8.8-17-1.9-1.9-4.5-2.6-15.4-4.1l-13.1-1.9-5.8-11.9c-3.3-6.5-6.7-12.3-7.6-12.8-2.7-1.4-6.4-1-8 0.8zm105.2-0.8c-0.8 0.5-4.2 6.3-7.5 12.8-6.8 13.4-4.1 11.7-22.9 14.3-7 1-9.5 1.8-11.3 3.6-4 4-3.1 5.9 7.8 16.3l10.2 9.8-2.2 11.9c-2.6 14.6-2.6 16.6-0.3 18.7 3 2.7 5.8 2 18.2-4.4l11.7-6.1 11.5 6.1c12.1 6.5 15.5 7.2 18.1 4.3 2.2-2.4 2.1-5.5-0.3-19.1l-2.1-11.2 10.1-9.7c10.9-10.5 12-13 7.8-16.9-1.8-1.6-5.2-2.5-15.1-3.9l-12.8-1.7-5.6-11.1c-3-6.1-6.2-11.9-7.1-12.9-1.6-1.8-5.8-2.2-8.2-0.8z"/>
	</g>
</svg>